REM MD5 0f973726678ce79612a91e8870cd3e63
FILE "Essential PlayStation 7 (Europe).bin" BINARY
  TRACK 01 MODE2/2352
    INDEX 01 00:00:00
  TRACK 02 AUDIO
    INDEX 00 35:32:67
    INDEX 01 35:34:67
  TRACK 03 AUDIO
    INDEX 00 41:08:65
    INDEX 01 41:10:65
REM LEADOUT 44:28:20
